<?xml version="1.0" encoding="UTF-8"?>
<svg version="1.1" xmlns="http://www.w3.org/2000/svg" width="103" height="104">
<path d="M0 0 C28.38 0 56.76 0 86 0 C86 28.05 86 56.1 86 85 C74.45 85 62.9 85 51 85 C45.1875 74.3125 45.1875 74.3125 43.37182617 70.9699707 C42.65216675 69.64872192 42.65216675 69.64872192 41.91796875 68.30078125 C41.43094482 67.40528564 40.9439209 66.50979004 40.44213867 65.5871582 C39.01524747 63.02735355 37.507799 60.51299833 36 58 C35.67 66.91 35.34 75.82 35 85 C23.45 85 11.9 85 0 85 C0 56.95 0 28.9 0 0 Z " fill="#F4793C" transform="translate(8,9)"/>
</svg>
